<svg width="38" height="38" viewBox="0 0 38 38" fill="none" xmlns="http://www.w3.org/2000/svg">
<path d="M24.2408 29.925C22.7208 31.5083 20.9791 33.1391 18.9999 34.8333C10.5608 27.6291 6.33325 21.4066 6.33325 16.15C6.33325 8.26496 12.3499 3.16663 18.9999 3.16663C25.3333 3.16663 31.0966 7.78996 31.6191 15.0416H37.2083L30.0833 22.1666L22.9583 15.0416H28.4524C27.9458 9.87996 23.9558 6.33329 18.9999 6.33329C13.6958 6.33329 9.49992 10.4025 9.49992 16.15C9.49992 19.855 12.5874 24.7633 18.9999 30.6216C20.0133 29.6875 20.9474 28.785 21.8024 27.9141C21.5238 27.3644 21.3774 26.7571 21.3749 26.1408C21.3749 25.091 21.792 24.0842 22.5343 23.3418C23.2766 22.5995 24.2834 22.1825 25.3333 22.1825C26.3831 22.1825 27.3899 22.5995 28.1322 23.3418C28.8745 24.0842 29.2916 25.091 29.2916 26.1408C29.291 26.7531 29.148 27.3568 28.8738 27.9043C28.5996 28.4517 28.2017 28.9278 27.7117 29.295C27.2217 29.6621 26.653 29.9101 26.0506 30.0195C25.4481 30.1288 24.8285 30.0965 24.2408 29.925Z" fill="#FA793C"/>
</svg>
